<svg xmlns="http://www.w3.org/2000/svg" width="300" height="125" viewBox="0 0 300 125">
  <rect width="300" height="125" fill="#000008"/>
  <!-- Stars -->
  <circle cx="20" cy="15" r="1" fill="white" opacity="0.6"/>
  <circle cx="70" cy="8" r="1" fill="white" opacity="0.5"/>
  <circle cx="130" cy="20" r="1" fill="white" opacity="0.7"/>
  <circle cx="180" cy="5" r="1" fill="white" opacity="0.4"/>
  <circle cx="240" cy="18" r="1" fill="white" opacity="0.6"/>
  <circle cx="280" cy="10" r="1" fill="white" opacity="0.5"/>
  <circle cx="50" cy="35" r="1" fill="white" opacity="0.3"/>
  <circle cx="210" cy="40" r="1" fill="white" opacity="0.4"/>
  <!-- Row 1 enemies (yellow) -->
  <rect x="40" y="22" width="18" height="12" rx="2" fill="#ffc400"/>
  <rect x="43" y="19" width="12" height="3" rx="1" fill="#ffc400"/>
  <rect x="40" y="34" width="5" height="4" rx="1" fill="#ffc400"/>
  <rect x="53" y="34" width="5" height="4" rx="1" fill="#ffc400"/>

  <rect x="80" y="22" width="18" height="12" rx="2" fill="#ffc400"/>
  <rect x="83" y="19" width="12" height="3" rx="1" fill="#ffc400"/>
  <rect x="80" y="34" width="5" height="4" rx="1" fill="#ffc400"/>
  <rect x="93" y="34" width="5" height="4" rx="1" fill="#ffc400"/>

  <rect x="120" y="22" width="18" height="12" rx="2" fill="#ffc400"/>
  <rect x="123" y="19" width="12" height="3" rx="1" fill="#ffc400"/>
  <rect x="120" y="34" width="5" height="4" rx="1" fill="#ffc400"/>
  <rect x="133" y="34" width="5" height="4" rx="1" fill="#ffc400"/>

  <rect x="160" y="22" width="18" height="12" rx="2" fill="#ffc400"/>
  <rect x="163" y="19" width="12" height="3" rx="1" fill="#ffc400"/>
  <rect x="160" y="34" width="5" height="4" rx="1" fill="#ffc400"/>
  <rect x="173" y="34" width="5" height="4" rx="1" fill="#ffc400"/>

  <rect x="200" y="22" width="18" height="12" rx="2" fill="#ffc400"/>
  <rect x="203" y="19" width="12" height="3" rx="1" fill="#ffc400"/>
  <rect x="200" y="34" width="5" height="4" rx="1" fill="#ffc400"/>
  <rect x="213" y="34" width="5" height="4" rx="1" fill="#ffc400"/>

  <!-- Row 2 enemies (purple) -->
  <rect x="40" y="48" width="18" height="12" rx="2" fill="#e040fb"/>
  <rect x="80" y="48" width="18" height="12" rx="2" fill="#e040fb"/>
  <rect x="120" y="48" width="18" height="12" rx="2" fill="#e040fb"/>
  <rect x="160" y="48" width="18" height="12" rx="2" fill="#e040fb"/>
  <rect x="200" y="48" width="18" height="12" rx="2" fill="#e040fb"/>

  <!-- Bullet -->
  <rect x="149" y="58" width="4" height="14" rx="2" fill="#00ff88"/>

  <!-- Player ship -->
  <rect x="135" y="90" width="30" height="12" rx="3" fill="#00d4ff"/>
  <rect x="148" y="82" width="6" height="10" rx="2" fill="#00d4ff"/>

  <!-- Shield -->
  <rect x="80" y="78" width="24" height="10" rx="3" fill="#00ffff" opacity="0.4"/>
  <rect x="196" y="78" width="24" height="10" rx="3" fill="#00ffff" opacity="0.4"/>

  <!-- Label -->
  <text x="150" y="116" font-family="Courier New, monospace" font-size="10" font-weight="bold" fill="#00d4ff" text-anchor="middle" letter-spacing="2" opacity="0.9">SPACE INVADERS</text>
</svg>
